<svg viewBox="0 0 48 24" xmlns="http://www.w3.org/2000/svg">
    <path d="M37.0284 0C30.2186 0 25.712 5.73191 21.7361 10.7901C18.3393 15.1112 15.1315 19.1914 11.2247 19.1914C7.1638 19.1914 4.67053 14.8947 4.67053 11.8145C4.67053 8.95855 7.40568 4.80822 11.6925 4.80822C15.8521 4.80822 18.0191 8.23552 18.1284 8.41118C18.8023 9.53388 20.2331 9.88717 21.3291 9.19901C22.4305 8.50822 22.7794 7.02895 22.1081 5.89506C21.9656 5.65493 18.5399 0.000328767 11.6925 0.000328767C4.80217 0.000328767 0 6.2273 0 11.8148C0 17.5783 4.60982 24 11.2243 24C17.3589 24 21.43 18.8224 25.3663 13.8148C29.0076 9.18388 32.4473 4.80855 37.0284 4.80855C39.754 4.80855 41.5449 5.76053 42.5022 7.71645C43.3317 9.41382 43.3311 11.3345 43.3304 12C43.3304 12.3816 43.1346 14.2954 42.2277 16.0187C41.1938 17.9819 39.7258 18.8957 37.6045 18.8957C33.3327 18.8957 31.0248 16.0372 30.1557 14.9605C29.9298 14.6803 29.7671 14.4786 29.5499 14.2872C28.5715 13.4243 27.0965 13.5401 26.2568 14.5487C25.4471 15.5214 25.5251 16.9674 26.4096 17.8428C26.4517 17.8921 26.5025 17.9569 26.5629 18.0322C27.6957 19.4355 31.1398 23.7033 37.6035 23.7033C45.4594 23.7033 48 15.8174 48 11.9671C48.0006 9.5148 47.5546 7.35756 46.6727 5.55395C45.4345 3.02105 42.7556 0 37.0284 0Z" />
</svg>
