<svg viewBox="0 0 92 91" xmlns="http://www.w3.org/2000/svg">
    <g opacity="0.2" filter="url(#filter0_f)">
        <path d="M68.6094 30.8365V28.0967C68.6094 24.439 66.3022 21.241 62.997 20.3214C59.4177 19.3232 55.6255 20.9991 53.9752 24.3012L49.4454 33.1436C39.6818 32.8905 30.5382 28.9683 23.6056 22.0357L18.8005 17.2308C18.3327 16.7613 17.6294 16.6203 17.0125 16.8751C16.3989 17.1283 16 17.7274 16 18.3908V28.5341C16 36.2695 20.47 43.1699 27.0774 46.5506L28.4409 49.5098C29.1185 50.9823 29.0048 52.6101 28.13 53.9767C27.2569 55.3417 25.8245 56.1253 24.2031 56.1253H20.9219C20.015 56.1253 19.2812 56.8591 19.2812 57.7659C19.2812 64.0977 24.4338 69.2503 30.7656 69.2503H34.0469C34.9537 69.2503 35.6875 68.5165 35.6875 67.6097V61.0472C35.6875 60.142 36.4229 59.4065 37.3281 59.4065C50.8985 59.4065 62.0469 48.3675 62.0469 34.7972V33.1565H66.2894L69.1993 36.0665C69.8402 36.7073 70.8785 36.7073 71.5193 36.0665C72.1601 35.4256 72.1601 34.3873 71.5193 33.7465L68.6094 30.8365Z" />
        <path d="M37.256 17.1507C36.5718 17.0401 35.9325 17.3814 35.6025 17.9678C34.3092 20.2551 33.4968 22.7075 33.0995 25.2307C36.99 27.4841 41.2946 28.9293 45.7909 29.5329C42.2805 26.7423 39.7138 22.8632 38.6242 18.3876C38.4655 17.7339 37.9225 17.242 37.256 17.1507Z" />
    </g>
    <path d="M88.6094 50.8365V48.0967C88.6094 44.439 86.3022 41.241 82.997 40.3214C79.4177 39.3232 75.6255 40.9991 73.9752 44.3012L69.4454 53.1436C59.6818 52.8905 50.5382 48.9683 43.6056 42.0357L38.8005 37.2308C38.3327 36.7613 37.6294 36.6203 37.0125 36.8751C36.3989 37.1283 36 37.7274 36 38.3908V48.5341C36 56.2695 40.47 63.1699 47.0774 66.5506L48.4409 69.5099C49.1185 70.9823 49.0048 72.6101 48.13 73.9767C47.2569 75.3417 45.8245 76.1253 44.2031 76.1253H40.9219C40.015 76.1253 39.2812 76.8591 39.2812 77.7659C39.2812 84.0977 44.4338 89.2503 50.7656 89.2503H54.0469C54.9537 89.2503 55.6875 88.5165 55.6875 87.6097V81.0472C55.6875 80.142 56.4229 79.4065 57.3281 79.4065C70.8985 79.4065 82.0469 68.3675 82.0469 54.7972V53.1565H86.2894L89.1993 56.0665C89.8402 56.7073 90.8785 56.7073 91.5193 56.0665C92.1601 55.4256 92.1601 54.3873 91.5193 53.7465L88.6094 50.8365Z" />
    <path d="M57.256 37.1507C56.5718 37.0401 55.9325 37.3814 55.6025 37.9678C54.3092 40.2551 53.4968 42.7075 53.0995 45.2307C56.99 47.4841 61.2946 48.9293 65.7909 49.5329C62.2805 46.7423 59.7138 42.8632 58.6242 38.3876C58.4655 37.7339 57.9225 37.242 57.256 37.1507Z" />
    <defs>
        <filter id="filter0_f" x="0" y="-1" width="88" height="88" filterUnits="userSpaceOnUse" color-interpolation-filters="sRGB">
            <feFlood flood-opacity="0" result="BackgroundImageFix"/>
            <feBlend mode="normal" in="SourceGraphic" in2="BackgroundImageFix" result="shape"/>
            <feGaussianBlur stdDeviation="8" result="effect1_foregroundBlur"/>
        </filter>
    </defs>
</svg>
