<svg viewBox="0 0 20 20" xmlns="http://www.w3.org/2000/svg">
    <path d="M2.88906 1.0155C1.51417 1.0155 0.615234 1.91833 0.615234 3.10496C0.615234 4.26539 1.48739 5.19397 2.8363 5.19397H2.8624C4.26418 5.19397 5.13657 4.26539 5.13657 3.10496C5.11036 1.91833 4.26418 1.0155 2.88906 1.0155Z" />
    <path d="M0.852814 6.84509H4.87221V18.9376H0.852814V6.84509Z" />
    <path d="M14.7379 6.56128C12.5696 6.56128 11.1156 8.59879 11.1156 8.59879V6.84509H7.09613V18.9376H11.1154V12.1847C11.1154 11.8232 11.1416 11.4622 11.2478 11.2037C11.5384 10.4818 12.1996 9.73393 13.31 9.73393C14.7645 9.73393 15.3462 10.8429 15.3462 12.4685V18.9376H19.3652V12.004C19.3652 8.28968 17.3822 6.56128 14.7379 6.56128Z" />
</svg>
