<svg viewBox="0 0 92 92" xmlns="http://www.w3.org/2000/svg">
    <g opacity="0.2" filter="url(#filter0_f)">
        <path d="M57.125 68.7188H55.4844V65.2188H32.5156V68.7188H30.875C29.9682 68.7188 29.2344 69.4525 29.2344 70.3594C29.2344 71.2662 29.9682 72 30.875 72H57.125C58.0318 72 58.7656 71.2662 58.7656 70.3594C58.7656 69.4525 58.0318 68.7188 57.125 68.7188Z" />
        <path d="M44.2323 29.1586L44 28.694L43.7773 29.1393C43.373 29.9717 42.5546 30.0369 42.5436 30.0478L42.0277 30.1247L42.3818 30.4739C42.7703 30.844 42.9617 31.402 42.8625 31.948L42.7808 32.443L43.2437 32.2027C43.7085 31.9609 44.2766 31.9532 44.7562 32.2027L45.2192 32.443L45.1343 31.9287C45.0461 31.4017 45.2208 30.8648 45.6005 30.4915L45.9722 30.1247L45.4563 30.0478C44.9276 29.9676 44.471 29.636 44.2323 29.1586Z" />
        <path d="M70.3594 19.2812H62.012C62.0257 18.7357 62.0469 18.1958 62.0469 17.6406C62.0469 16.7338 61.3131 16 60.4062 16H27.5938C26.6869 16 25.9531 16.7338 25.9531 17.6406C25.9531 18.1958 25.9743 18.7359 25.988 19.2812H17.6406C16.7338 19.2812 16 20.015 16 20.9219V25.0779C16 34.2371 23.3358 41.6772 32.3773 42.1585C34.2628 44.752 36.508 46.6774 39.0494 47.771C38.6766 55.2572 34.7047 60.4422 33.4197 61.9374H54.5777C53.2932 60.4526 49.322 55.2984 48.9492 47.771C51.4913 46.6777 53.7375 44.7524 55.6233 42.1585C64.6642 41.677 72 34.237 72 25.0779V20.9219C72 20.015 71.2662 19.2812 70.3594 19.2812ZM19.2812 25.0779V22.5625H26.1514C26.6409 28.8132 28.063 34.2932 30.2366 38.6087C24.0409 37.2136 19.2812 31.6891 19.2812 25.0779ZM50.6138 30.1584L48.5102 32.2299L48.9941 35.1427C49.0967 35.7563 48.8435 36.3748 48.3403 36.7385C47.8357 37.105 47.1723 37.1539 46.6196 36.8683L44 35.508L41.3805 36.8683C40.8262 37.1503 40.1628 37.1038 39.6598 36.7385C39.1567 36.3748 38.9036 35.7564 39.006 35.1427L39.4899 32.2299L37.3863 30.1584C36.9349 29.7138 36.7898 29.0576 36.9778 28.4825C37.1701 27.8929 37.6795 27.4603 38.2948 27.3675L41.2139 26.9284L42.5325 24.2896C43.0868 23.1777 44.9134 23.1777 45.4677 24.2896L46.7863 26.9284L49.7054 27.3675C50.3207 27.4604 50.8301 27.893 51.0224 28.4825C51.2146 29.0737 51.056 29.7226 50.6138 30.1584ZM68.7188 25.0779C68.7188 31.6889 63.9591 37.2134 57.7636 38.6085C59.937 34.293 61.3593 28.8134 61.8486 22.5625H68.7188V25.0779Z" />
    </g>
    <path d="M77.125 88.7188H75.4844V85.2188H52.5156V88.7188H50.875C49.9682 88.7188 49.2344 89.4525 49.2344 90.3594C49.2344 91.2662 49.9682 92 50.875 92H77.125C78.0318 92 78.7656 91.2662 78.7656 90.3594C78.7656 89.4525 78.0318 88.7188 77.125 88.7188Z" />
    <path d="M64.2323 49.1586L64 48.694L63.7773 49.1393C63.373 49.9717 62.5546 50.0369 62.5436 50.0478L62.0277 50.1247L62.3818 50.4739C62.7703 50.844 62.9617 51.402 62.8625 51.948L62.7808 52.443L63.2437 52.2027C63.7085 51.9609 64.2766 51.9532 64.7562 52.2027L65.2192 52.443L65.1343 51.9287C65.0461 51.4017 65.2208 50.8648 65.6005 50.4915L65.9722 50.1247L65.4563 50.0478C64.9276 49.9676 64.471 49.636 64.2323 49.1586Z" />
    <path d="M90.3594 39.2812H82.012C82.0257 38.7357 82.0469 38.1958 82.0469 37.6406C82.0469 36.7338 81.3131 36 80.4062 36H47.5938C46.6869 36 45.9531 36.7338 45.9531 37.6406C45.9531 38.1958 45.9743 38.7359 45.988 39.2812H37.6406C36.7338 39.2812 36 40.015 36 40.9219V45.0779C36 54.2371 43.3358 61.6772 52.3773 62.1585C54.2628 64.752 56.508 66.6774 59.0494 67.771C58.6766 75.2572 54.7047 80.4422 53.4197 81.9374H74.5777C73.2932 80.4526 69.322 75.2984 68.9492 67.771C71.4913 66.6777 73.7375 64.7524 75.6233 62.1585C84.6642 61.677 92 54.237 92 45.0779V40.9219C92 40.015 91.2662 39.2812 90.3594 39.2812ZM39.2812 45.0779V42.5625H46.1514C46.6409 48.8132 48.063 54.2932 50.2366 58.6087C44.0409 57.2136 39.2812 51.6891 39.2812 45.0779ZM70.6138 50.1584L68.5102 52.2299L68.9941 55.1427C69.0967 55.7563 68.8435 56.3748 68.3403 56.7385C67.8357 57.105 67.1723 57.1539 66.6196 56.8683L64 55.508L61.3805 56.8683C60.8262 57.1503 60.1628 57.1038 59.6598 56.7385C59.1567 56.3748 58.9036 55.7564 59.006 55.1427L59.4899 52.2299L57.3863 50.1584C56.9349 49.7138 56.7898 49.0576 56.9778 48.4825C57.1701 47.8929 57.6795 47.4603 58.2948 47.3675L61.2139 46.9284L62.5325 44.2896C63.0868 43.1777 64.9134 43.1777 65.4677 44.2896L66.7863 46.9284L69.7054 47.3675C70.3207 47.4604 70.8301 47.893 71.0224 48.4825C71.2146 49.0737 71.056 49.7226 70.6138 50.1584ZM88.7188 45.0779C88.7188 51.6889 83.9591 57.2134 77.7636 58.6085C79.937 54.293 81.3593 48.8134 81.8486 42.5625H88.7188V45.0779Z" />
    <defs>
        <filter id="filter0_f" x="0" y="0" width="88" height="88" filterUnits="userSpaceOnUse" color-interpolation-filters="sRGB">
            <feFlood flood-opacity="0" result="BackgroundImageFix"/>
            <feBlend mode="normal" in="SourceGraphic" in2="BackgroundImageFix" result="shape"/>
            <feGaussianBlur stdDeviation="8" result="effect1_foregroundBlur"/>
        </filter>
    </defs>
</svg>
