<svg viewBox="0 0 92 92" xmlns="http://www.w3.org/2000/svg">
    <g opacity="0.2" clip-path="url(#clip0)" filter="url(#filter0_f)">
        <path d="M70.852 16.007C59.9204 15.811 47.4534 21.5253 39.562 30.3896C32.0207 30.532 24.6777 33.6236 19.2714 39.03C18.9564 39.3403 18.8444 39.8046 18.982 40.2246C19.122 40.647 19.486 40.9526 19.9247 41.0156L28.9174 42.3036L27.8067 43.5473C27.3937 44.0093 27.4147 44.7116 27.8534 45.1503L42.8497 60.1466C43.076 60.373 43.3747 60.4873 43.6757 60.4873C43.9534 60.4873 44.231 60.3893 44.4527 60.191L45.6964 59.0803L46.9844 68.073C47.0474 68.5116 47.3927 68.8336 47.8104 68.9736C47.9177 69.0086 48.0297 69.025 48.144 69.025C48.4754 69.025 48.8137 68.8803 49.047 68.6493C54.3787 63.3176 57.4704 55.9746 57.6127 48.4333C66.4864 40.5256 72.2474 28.0633 71.993 17.1456C71.9767 16.525 71.475 16.0233 70.852 16.007ZM60.1 36.1483C58.9637 37.2846 57.4704 37.854 55.9747 37.854C54.479 37.854 52.9857 37.2846 51.8494 36.1483C49.5767 33.8733 49.5767 30.1726 51.8494 27.8976C54.1244 25.6226 57.825 25.6226 60.1 27.8976C62.375 30.1726 62.375 33.8756 60.1 36.1483Z" />
        <path d="M22.356 55.445C19.8593 57.9417 16.4317 69.221 16.049 70.4974C15.9253 70.908 16.0397 71.3537 16.3407 71.657C16.5647 71.881 16.861 72 17.1667 72C17.2787 72 17.3907 71.9837 17.5027 71.951C18.779 71.5684 30.0583 68.1407 32.555 65.644C35.3667 62.8324 35.3667 58.2567 32.555 55.445C29.741 52.6334 25.1677 52.6357 22.356 55.445Z" />
    </g>
    <g clip-path="url(#clip1)">
        <path d="M90.852 36.007C79.9204 35.811 67.4534 41.5253 59.562 50.3896C52.0207 50.532 44.6777 53.6236 39.2714 59.03C38.9564 59.3403 38.8444 59.8046 38.982 60.2246C39.122 60.647 39.486 60.9526 39.9247 61.0156L48.9174 62.3036L47.8067 63.5473C47.3937 64.0093 47.4147 64.7116 47.8534 65.1503L62.8497 80.1466C63.076 80.373 63.3747 80.4873 63.6757 80.4873C63.9534 80.4873 64.231 80.3893 64.4527 80.191L65.6964 79.0803L66.9844 88.073C67.0474 88.5116 67.3927 88.8336 67.8104 88.9736C67.9177 89.0086 68.0297 89.025 68.144 89.025C68.4754 89.025 68.8137 88.8803 69.047 88.6493C74.3787 83.3176 77.4704 75.9746 77.6127 68.4333C86.4864 60.5256 92.2474 48.0633 91.993 37.1456C91.9767 36.525 91.475 36.0233 90.852 36.007ZM80.1 56.1483C78.9637 57.2846 77.4704 57.854 75.9747 57.854C74.479 57.854 72.9857 57.2846 71.8494 56.1483C69.5767 53.8733 69.5767 50.1726 71.8494 47.8976C74.1244 45.6226 77.825 45.6226 80.1 47.8976C82.375 50.1726 82.375 53.8756 80.1 56.1483Z" />
        <path d="M42.356 75.445C39.8593 77.9417 36.4317 89.221 36.049 90.4974C35.9253 90.908 36.0397 91.3537 36.3407 91.657C36.5647 91.881 36.861 92 37.1667 92C37.2787 92 37.3907 91.9837 37.5027 91.951C38.779 91.5684 50.0583 88.1407 52.555 85.644C55.3667 82.8324 55.3667 78.2567 52.555 75.445C49.741 72.6334 45.1677 72.6357 42.356 75.445Z" />
    </g>
    <defs>
        <filter id="filter0_f" x="0" y="0" width="88" height="88" filterUnits="userSpaceOnUse" color-interpolation-filters="sRGB">
            <feFlood flood-opacity="0" result="BackgroundImageFix"/>
            <feBlend mode="normal" in="SourceGraphic" in2="BackgroundImageFix" result="shape"/>
            <feGaussianBlur stdDeviation="8" result="effect1_foregroundBlur"/>
        </filter>
        <clipPath id="clip0">
            <rect width="56" height="56" fill="white" transform="translate(16 16)"/>
        </clipPath>
        <clipPath id="clip1">
            <rect width="56" height="56" fill="white" transform="translate(36 36)"/>
        </clipPath>
    </defs>
</svg>
