<svg viewBox="0 0 503 504" fill="none" xmlns="http://www.w3.org/2000/svg">
    <g clip-path="url(#clip0)" filter="url(#filter0_d)">
        <path d="M187.685 349.86L82.8164 151.634L83.2587 151.431L326.662 40L326.86 40.395L423 231.128L422.59 231.335L187.685 349.86ZM84.0831 152.064L188.076 348.634L421.766 230.722L326.24 41.2037L84.0831 152.064Z" fill="#DBDBDB"/>
        <path d="M309.448 186.689C307.45 186.689 305.497 186.096 303.836 184.985C302.175 183.875 300.88 182.296 300.115 180.45C299.351 178.603 299.151 176.571 299.541 174.61C299.93 172.65 300.892 170.849 302.305 169.436C303.718 168.022 305.518 167.06 307.477 166.67C309.437 166.28 311.468 166.48 313.313 167.245C315.159 168.01 316.737 169.305 317.847 170.967C318.957 172.629 319.549 174.583 319.549 176.582C319.546 179.262 318.481 181.831 316.587 183.725C314.693 185.62 312.126 186.686 309.448 186.689ZM309.448 167.394C307.632 167.394 305.856 167.933 304.346 168.943C302.836 169.952 301.659 171.387 300.964 173.066C300.269 174.745 300.087 176.592 300.441 178.375C300.796 180.157 301.67 181.794 302.954 183.079C304.239 184.364 305.875 185.239 307.656 185.593C309.438 185.948 311.284 185.766 312.962 185.071C314.64 184.375 316.074 183.198 317.083 181.687C318.092 180.176 318.631 178.399 318.631 176.582C318.631 174.145 317.663 171.808 315.941 170.085C314.219 168.362 311.883 167.394 309.448 167.394Z" fill="#DBDBDB"/>
        <path d="M136.347 157.747C134.349 157.747 132.396 157.155 130.735 156.044C129.074 154.934 127.779 153.355 127.015 151.508C126.25 149.662 126.05 147.63 126.44 145.669C126.829 143.709 127.792 141.908 129.204 140.494C130.617 139.081 132.417 138.118 134.376 137.728C136.336 137.339 138.367 137.539 140.213 138.304C142.058 139.069 143.636 140.364 144.746 142.026C145.856 143.688 146.448 145.642 146.448 147.641C146.445 150.32 145.38 152.889 143.486 154.784C141.593 156.679 139.025 157.744 136.347 157.747ZM136.347 138.453C134.531 138.453 132.755 138.992 131.245 140.001C129.735 141.011 128.558 142.446 127.863 144.125C127.168 145.804 126.986 147.651 127.34 149.433C127.695 151.215 128.569 152.853 129.854 154.137C131.138 155.422 132.774 156.297 134.555 156.652C136.337 157.006 138.183 156.825 139.861 156.129C141.539 155.434 142.973 154.256 143.982 152.745C144.991 151.234 145.53 149.458 145.53 147.641C145.53 145.204 144.563 142.867 142.84 141.144C141.118 139.421 138.782 138.453 136.347 138.453Z" fill="#DBDBDB"/>
        <path d="M82.333 198.43C82.3329 198.25 82.3516 198.07 82.3887 197.893L82.8175 172.473L83.4492 172.418L83.4764 172.419L135.827 174.528C136.362 174.551 136.887 174.68 137.372 174.907C137.857 175.133 138.293 175.453 138.654 175.849C139.016 176.244 139.296 176.706 139.479 177.21C139.661 177.713 139.743 178.248 139.719 178.783L138.812 199.144C138.788 199.679 138.659 200.204 138.432 200.689C138.206 201.174 137.886 201.61 137.491 201.971C137.096 202.332 136.634 202.612 136.131 202.795C135.628 202.978 135.094 203.06 134.559 203.036L84.8343 201.032C84.1623 201.005 83.527 200.719 83.0608 200.234C82.5947 199.749 82.334 199.103 82.333 198.43H82.333Z" fill="#3D62E8"/>
        <path d="M80 196.578C80 196.513 80.0017 196.448 80.0045 196.383L80.8939 176.423C80.9458 175.29 81.4447 174.224 82.2814 173.458C83.118 172.693 84.2239 172.291 85.3566 172.34L133.156 174.472C134.236 174.521 135.251 174.997 135.981 175.795C136.71 176.593 137.093 177.647 137.046 178.727L136.139 199.088C136.089 200.168 135.614 201.184 134.817 201.914C134.019 202.643 132.965 203.027 131.886 202.98L84.0858 200.848C82.9866 200.798 81.9486 200.327 81.1877 199.532C80.4267 198.737 80.0014 197.679 80 196.578L80 196.578Z" fill="#2F2E41"/>
        <path d="M124.561 190.556C126.17 190.556 127.474 189.251 127.474 187.641C127.474 186.031 126.17 184.726 124.561 184.726C122.952 184.726 121.648 186.031 121.648 187.641C121.648 189.251 122.952 190.556 124.561 190.556Z" fill="#3D62E8"/>
        <path d="M299.287 339.529L294.41 271.828L295.337 249.232L276.328 253.464L283.33 342.174C282.537 343.809 282.208 345.631 282.381 347.441C282.553 349.251 283.219 350.978 284.306 352.434C285.394 353.89 286.86 355.019 288.546 355.698C290.231 356.376 292.071 356.578 293.863 356.281C295.656 355.984 297.332 355.199 298.709 354.013C300.085 352.827 301.11 351.285 301.67 349.556C302.23 347.827 302.303 345.977 301.883 344.208C301.463 342.44 300.565 340.821 299.287 339.529Z" fill="#9E616A"/>
        <path d="M129.907 208.21L111.726 196.386C111.174 194.575 110.116 192.959 108.675 191.731C107.235 190.502 105.473 189.712 103.598 189.454C101.723 189.196 99.8129 189.481 98.0946 190.275C96.3762 191.069 94.9211 192.338 93.9013 193.934C92.8816 195.529 92.34 197.383 92.3406 199.277C92.3411 201.171 92.8839 203.025 93.9045 204.619C94.9252 206.214 96.3811 207.483 98.0999 208.276C99.8188 209.069 101.729 209.352 103.604 209.093C103.736 209.075 103.862 209.043 103.992 209.02L123.483 223.203L129.907 208.21Z" fill="#9E616A"/>
        <path d="M154.476 248.94L111.258 216.991L126.926 204.839L145.959 219.257L216.152 190.77C217.185 190.594 218.243 190.629 219.263 190.871C220.283 191.114 221.243 191.56 222.086 192.182C222.919 192.792 223.621 193.563 224.149 194.45C224.678 195.337 225.022 196.321 225.161 197.344L225.195 197.586L212.329 217.702L154.476 248.94Z" fill="#3D62E8"/>
        <path d="M281.334 318.64L269.158 233.958L269.178 233.88L281.683 184.697L282.855 184.561C286.233 184.188 289.629 185.09 292.379 187.09C295.128 189.089 297.033 192.043 297.72 195.374L298.647 321.238L281.334 318.64Z" fill="#3D62E8"/>
        <path d="M285.176 171.418H221.889V142.809C221.889 138.652 222.707 134.535 224.297 130.694C225.888 126.853 228.218 123.362 231.157 120.423C234.095 117.483 237.584 115.151 241.423 113.56C245.262 111.968 249.377 111.15 253.532 111.15C257.688 111.15 261.803 111.968 265.642 113.56C269.481 115.151 272.969 117.483 275.908 120.423C278.846 123.362 281.177 126.853 282.767 130.694C284.357 134.535 285.176 138.652 285.176 142.809V171.418Z" fill="#2F2E41"/>
        <path d="M271.092 164.697C281.193 154.591 281.193 138.207 271.092 128.101C260.991 117.995 244.615 117.995 234.514 128.101C224.413 138.207 224.413 154.591 234.514 164.697C244.615 174.803 260.991 174.803 271.092 164.697Z" fill="#9E616A"/>
        <path d="M265.29 124.444C274.799 124.444 282.507 116.732 282.507 107.218C282.507 97.7046 274.799 89.9922 265.29 89.9922C255.781 89.9922 248.073 97.7046 248.073 107.218C248.073 116.732 255.781 124.444 265.29 124.444Z" fill="#2F2E41"/>
        <path d="M281.691 147.768H214.378V147.387C214.378 129.929 229.476 115.727 248.035 115.727C266.593 115.727 281.691 129.929 281.691 147.387V147.768Z" fill="#2F2E41"/>
        <path d="M292.501 187.814L292.492 187.731C292.436 186.982 292.23 186.251 291.887 185.583C291.544 184.914 291.07 184.322 290.494 183.839C289.918 183.357 289.251 182.995 288.533 182.775C287.814 182.555 287.059 182.482 286.312 182.559L218.78 189.468C217.702 189.579 216.679 189.998 215.834 190.676C214.988 191.354 214.356 192.262 214.014 193.29L209.041 208.202C207.88 209.488 192.461 227.184 201.64 251.375L205.079 271.147L198.798 282.898C185.905 296.73 178.397 329.094 176.492 377.164C191.616 381.713 207.326 384.016 223.119 384C223.248 384 223.376 384 223.504 383.995L227.761 353.336L236.935 383.412C251.952 382.152 266.717 378.779 280.793 373.393L270.017 298.903L267.859 270.835L292.479 187.888L292.501 187.814Z" fill="#2F2E41"/>
    </g>
    <defs>
        <filter id="filter0_d" x="0" y="0" width="503" height="504" filterUnits="userSpaceOnUse" color-interpolation-filters="sRGB">
            <feFlood flood-opacity="0" result="BackgroundImageFix"/>
            <feColorMatrix in="SourceAlpha" type="matrix" values="0 0 0 0 0 0 0 0 0 0 0 0 0 0 0 0 0 0 127 0" result="hardAlpha"/>
            <feOffset dy="40"/>
            <feGaussianBlur stdDeviation="40"/>
            <feColorMatrix type="matrix" values="0 0 0 0 0.900065 0 0 0 0 0.900065 0 0 0 0 0.900065 0 0 0 0.32 0"/>
            <feBlend mode="normal" in2="BackgroundImageFix" result="effect1_dropShadow"/>
            <feBlend mode="normal" in="SourceGraphic" in2="effect1_dropShadow" result="shape"/>
        </filter>
        <clipPath id="clip0">
            <rect width="343" height="344" fill="white" transform="translate(80 40)"/>
        </clipPath>
    </defs>
</svg>
