<svg viewBox="0 0 92 89" xmlns="http://www.w3.org/2000/svg">
    <path d="M77.125 36.2812C74.0862 36.2812 71.3002 37.2442 68.8445 39.1434C66.4902 40.9641 64.9228 43.2832 64 44.9696C63.0772 43.2831 61.5098 40.9641 59.1555 39.1434C56.6998 37.2442 53.9138 36.2812 50.875 36.2812C42.3949 36.2812 36 43.2175 36 52.4156C36 62.3528 43.9781 69.1516 56.056 79.4441C58.107 81.192 60.4318 83.1733 62.8481 85.2863C63.1666 85.5652 63.5756 85.7188 64 85.7188C64.4244 85.7188 64.8334 85.5652 65.1519 85.2864C67.5685 83.173 69.8931 81.1919 71.9453 79.443C84.0219 69.1516 92 62.3528 92 52.4156C92 43.2175 85.6051 36.2812 77.125 36.2812Z" />
    <g opacity="0.2" filter="url(#filter0_f)">
        <path d="M57.125 16.2812C54.0862 16.2812 51.3002 17.2442 48.8445 19.1434C46.4902 20.9641 44.9228 23.2832 44 24.9696C43.0772 23.2831 41.5098 20.9641 39.1555 19.1434C36.6998 17.2442 33.9138 16.2812 30.875 16.2812C22.3949 16.2812 16 23.2175 16 32.4156C16 42.3528 23.9781 49.1516 36.056 59.4441C38.107 61.192 40.4318 63.1733 42.8481 65.2863C43.1666 65.5652 43.5756 65.7188 44 65.7188C44.4244 65.7188 44.8334 65.5652 45.1519 65.2864C47.5685 63.173 49.8931 61.1919 51.9453 59.443C64.0219 49.1516 72 42.3528 72 32.4156C72 23.2175 65.6051 16.2812 57.125 16.2812Z" />
    </g>
    <defs>
        <filter id="filter0_f" x="0" y="-3" width="88" height="88" filterUnits="userSpaceOnUse" color-interpolation-filters="sRGB">
            <feFlood flood-opacity="0" result="BackgroundImageFix"/>
            <feBlend mode="normal" in="SourceGraphic" in2="BackgroundImageFix" result="shape"/>
            <feGaussianBlur stdDeviation="8" result="effect1_foregroundBlur"/>
        </filter>
    </defs>
</svg>
