<svg viewBox="0 0 375 501" fill="none" xmlns="http://www.w3.org/2000/svg">
    <g clip-path="url(#clip0)" filter="url(#filter0_d)">
        <path d="M248.653 131.667C252.769 133.84 256.793 136.063 260.724 138.336" stroke="#DBDBDB" stroke-miterlimit="10"/>
        <path d="M172.05 118.206C190.005 122.088 209.608 128.789 229.355 138.246C243.658 145.051 257.344 153.082 270.26 162.249" stroke="#DBDBDB" stroke-miterlimit="10"/>
        <path d="M112.286 380.153H296.388" stroke="#3F3D56" stroke-miterlimit="10"/>
        <path d="M155.25 115.334C160.645 115.997 166.262 116.955 172.05 118.206" stroke="#DBDBDB" stroke-miterlimit="10"/>
        <path d="M102.448 171.618C92.4801 157.033 89.0558 143.253 94.1773 132.563C99.8419 120.739 115.005 114.691 135.559 114.245" stroke="#DBDBDB" stroke-miterlimit="10"/>
        <path d="M312.361 204.195C320.67 217.568 323.248 230.105 318.509 239.997C314.338 248.701 305.02 254.276 292.193 256.789" stroke="#DBDBDB" stroke-miterlimit="10"/>
        <path d="M270.26 162.25C278.587 168.154 286.457 174.676 293.805 181.761" stroke="#DBDBDB" stroke-miterlimit="10"/>
        <path d="M96.929 97.1523C113.475 93.5982 134.887 94.23 158.834 98.9496" stroke="#DBDBDB" stroke-miterlimit="10"/>
        <path d="M337.751 204.194C345.159 215.012 349.714 225.481 350.905 235.015" stroke="#DBDBDB" stroke-miterlimit="10"/>
        <path d="M260.724 138.336C268.154 142.632 275.224 147.074 281.932 151.663" stroke="#DBDBDB" stroke-miterlimit="10"/>
        <path d="M271.372 297.682C269.472 297.79 267.639 298.424 266.079 299.514C264.52 300.605 263.294 302.108 262.541 303.856C260.333 309.192 263.176 315.461 267.444 319.352C271.712 323.244 277.195 325.468 282.176 328.392C288.867 332.319 294.879 337.77 298.227 344.768C301.575 351.766 301.931 360.434 297.996 367.119C294.343 373.324 287.702 377.038 281.368 380.463" stroke="#3F3D56" stroke-miterlimit="10"/>
        <path d="M276.997 301.935C281.306 301.935 284.798 300.239 284.798 298.147C284.798 296.055 281.306 294.359 276.997 294.359C272.689 294.359 269.196 296.055 269.196 298.147C269.196 300.239 272.689 301.935 276.997 301.935Z" fill="#57B894"/>
        <path d="M283.238 326.894C287.546 326.894 291.039 325.198 291.039 323.105C291.039 321.013 287.546 319.317 283.238 319.317C278.93 319.317 275.437 321.013 275.437 323.105C275.437 325.198 278.93 326.894 283.238 326.894Z" fill="#57B894"/>
        <path d="M268.973 330.905C273.282 330.905 276.774 329.209 276.774 327.117C276.774 325.024 273.282 323.328 268.973 323.328C264.665 323.328 261.172 325.024 261.172 327.117C261.172 329.209 264.665 330.905 268.973 330.905Z" fill="#57B894"/>
        <path d="M291.262 351.852C295.57 351.852 299.063 350.156 299.063 348.064C299.063 345.972 295.57 344.276 291.262 344.276C286.954 344.276 283.461 345.972 283.461 348.064C283.461 350.156 286.954 351.852 291.262 351.852Z" fill="#57B894"/>
        <path d="M306.864 351.852C311.172 351.852 314.665 350.156 314.665 348.064C314.665 345.972 311.172 344.276 306.864 344.276C302.555 344.276 299.063 345.972 299.063 348.064C299.063 350.156 302.555 351.852 306.864 351.852Z" fill="#57B894"/>
        <path d="M229.568 150.575H233.962C233.962 150.575 237.991 181.698 235.061 184.627C232.131 187.556 224.074 189.387 222.976 184.627C221.877 179.867 222.976 162.292 222.976 162.292L229.568 150.575Z" fill="#3D62E8"/>
        <path d="M200.82 154.786C215.584 154.786 227.554 140.769 227.554 123.479C227.554 106.19 215.584 92.1733 200.82 92.1733C186.055 92.1733 174.085 106.19 174.085 123.479C174.085 140.769 186.055 154.786 200.82 154.786Z" fill="#242424"/>
        <path d="M194.777 129.338C194.777 129.338 196.242 141.421 191.847 143.984C187.453 146.547 196.974 161.193 196.974 161.193L208.327 164.122L216.018 153.504L214.553 142.519C214.553 142.519 205.764 133.732 209.792 125.676L194.777 129.338Z" fill="#FFC1C7"/>
        <path opacity="0.1" d="M194.777 129.338C194.777 129.338 196.242 141.421 191.847 143.984C187.453 146.547 196.974 161.193 196.974 161.193L208.327 164.122L216.018 153.504L214.553 142.519C214.553 142.519 205.764 133.732 209.792 125.676L194.777 129.338Z" fill="black"/>
        <path d="M178.297 260.502C178.297 260.502 173.902 300.412 178.297 309.932C182.692 319.452 194.411 346.181 194.411 346.181L190.748 353.871L200.636 351.674L204.665 343.985C204.665 343.985 199.904 325.311 199.172 318.72C198.439 312.129 192.946 300.046 192.946 300.046L203.2 256.474L178.297 260.502Z" fill="#FFC1C7"/>
        <path d="M213.088 253.83C213.088 253.83 213.454 294.107 216.018 300.355L214.553 354.912L222.61 355.987C222.61 355.987 234.329 310.218 232.498 299.233C230.667 288.249 232.864 248.704 232.864 248.704L213.088 253.83Z" fill="#FFC1C7"/>
        <path d="M200.819 134.281C208.505 134.281 214.736 128.052 214.736 120.367C214.736 112.683 208.505 106.453 200.819 106.453C193.134 106.453 186.903 112.683 186.903 120.367C186.903 128.052 193.134 134.281 200.819 134.281Z" fill="#FFC1C7"/>
        <path d="M248.245 258.956C248.245 258.956 238.357 265.547 234.329 260.787C230.3 256.027 180.861 263.716 174.635 262.252C168.409 260.787 177.931 237.353 177.931 225.27C177.931 216.23 181.212 202.477 182.864 196.121C183.42 193.982 183.79 192.682 183.79 192.682C183.79 192.682 187.548 181.994 186.845 177.553C186.797 177.216 186.705 176.888 186.57 176.575C186.511 176.445 186.439 176.321 186.354 176.206C184.6 173.866 179.571 156.803 177.62 149.476C177.301 148.392 177.038 147.292 176.832 146.181C176.832 145.082 190.382 141.787 193.77 141.63C197.161 141.472 198.073 146.181 198.073 146.181C199.172 146.913 204.299 159.729 204.299 159.729L209.06 147.646C209.06 147.646 208.693 145.082 208.327 145.082C207.961 145.082 213.744 141.626 213.744 141.626C213.744 141.626 219.68 145.815 222.976 145.082C226.272 144.35 233.963 150.941 233.963 150.941C233.963 150.941 220.412 184.993 225.906 192.316C231.399 199.639 248.245 258.956 248.245 258.956Z" fill="#3D62E8"/>
        <path d="M203.566 342.52C203.566 342.52 197.341 348.745 197.341 349.477L192.213 347.28C192.213 347.28 190.016 355.335 189.65 356.434C189.284 357.532 183.058 367.418 176.832 371.812C170.606 376.206 176.832 381.698 182.325 380.6C187.819 379.501 201.735 367.052 201.735 367.052C201.735 367.052 211.257 367.052 214.553 359.729C214.553 359.729 205.764 341.788 203.566 342.52Z" fill="#242424"/>
        <path d="M221.877 353.081C221.877 353.081 212.469 346.246 211.863 352.593C211.257 358.939 211.257 372.853 211.257 372.853C211.257 372.853 208.327 382.007 217.483 380.908C226.638 379.81 227.371 377.247 227.371 377.247L222.976 359.672V351.982L221.877 353.081Z" fill="#242424"/>
        <path opacity="0.1" d="M186.354 176.206C184.6 173.866 179.572 156.803 177.62 149.476H179.396C179.396 149.476 183.856 166.931 186.57 176.575C186.511 176.445 186.439 176.321 186.354 176.206Z" fill="black"/>
        <path opacity="0.1" d="M210.524 200.372C210.524 200.372 205.397 200.738 186.72 197.076C185.419 196.826 184.131 196.507 182.864 196.121C183.42 193.982 183.79 192.682 183.79 192.682C183.79 192.682 187.548 181.994 186.845 177.553C187.72 180.629 188.372 182.705 188.551 182.796C189.284 183.162 212.722 187.19 216.018 188.655C219.314 190.119 210.524 200.372 210.524 200.372Z" fill="black"/>
        <path opacity="0.1" d="M217.116 152.45C217.116 152.45 227.218 151.204 227.843 152.841C228.469 154.479 231.033 170.304 232.132 172.333C233.23 174.362 233.596 186.942 229.202 187.347C224.807 187.753 218.948 183.29 220.046 179.637C221.145 175.985 217.116 152.45 217.116 152.45Z" fill="black"/>
        <path d="M211.989 186.092C211.989 186.092 227.371 187.922 229.934 186.092C232.498 184.261 243.118 184.261 240.921 189.387C238.723 194.513 219.68 194.879 219.68 194.879H208.693L211.989 186.092Z" fill="#FFC1C7"/>
        <path d="M179.396 146.913H176.832C176.832 146.913 171.705 148.012 172.437 164.122C173.17 180.233 168.043 190.852 186.72 194.513C205.397 198.175 210.524 197.809 210.524 197.809C210.524 197.809 219.314 187.556 216.018 186.092C212.722 184.627 189.284 180.599 188.551 180.233C187.819 179.867 179.396 146.913 179.396 146.913Z" fill="#3D62E8"/>
        <path d="M227.562 154.14C227.562 154.14 221.145 130.07 216.018 130.07C210.891 130.07 205.031 131.169 209.426 135.929C213.82 140.689 219.314 145.815 219.68 148.378C220.046 150.941 221.511 154.602 221.511 154.602L227.562 154.14Z" fill="#FFC1C7"/>
        <path d="M218.581 152.45C218.581 152.45 228.682 151.204 229.308 152.841C229.934 154.479 232.498 170.304 233.596 172.333C234.695 174.362 235.061 186.942 230.667 187.347C226.272 187.753 220.412 183.29 221.511 179.637C222.61 175.985 218.581 152.45 218.581 152.45Z" fill="#3D62E8"/>
        <path d="M197.157 120.367C204.439 120.367 210.341 114.466 210.341 107.186C210.341 99.9056 204.439 94.004 197.157 94.004C189.876 94.004 183.973 99.9056 183.973 107.186C183.973 114.466 189.876 120.367 197.157 120.367Z" fill="#242424"/>
        <path d="M250.284 256.195C229.824 252.823 206.679 245.495 183.331 234.313C156.747 221.582 134.22 205.925 118.168 190.101" stroke="#DBDBDB" stroke-miterlimit="10"/>
        <path d="M167.331 241.2C149.028 231.719 132.457 221.178 118.168 210.204" stroke="#DBDBDB" stroke-miterlimit="10"/>
        <path d="M37.9436 93.0218C50.0627 93.0218 59.8872 83.1991 59.8872 71.0822C59.8872 58.9653 50.0627 49.1426 37.9436 49.1426C25.8245 49.1426 16 58.9653 16 71.0822C16 83.1991 25.8245 93.0218 37.9436 93.0218Z" fill="#E8703D"/>
        <path d="M43.0908 84.0835C55.2099 84.0835 65.0344 74.2608 65.0344 62.1439C65.0344 50.027 55.2099 40.2043 43.0908 40.2043C30.9717 40.2043 21.1472 50.027 21.1472 62.1439C21.1472 74.2608 30.9717 84.0835 43.0908 84.0835Z" stroke="#DBDBDB" stroke-miterlimit="10"/>
        <path d="M343.034 163.093C350.085 163.093 355.801 157.378 355.801 150.328C355.801 143.278 350.085 137.563 343.034 137.563C335.983 137.563 330.267 143.278 330.267 150.328C330.267 157.378 335.983 163.093 343.034 163.093Z" fill="#F2F2F2"/>
        <path d="M346.028 157.893C353.08 157.893 358.796 152.178 358.796 145.128C358.796 138.078 353.08 132.363 346.028 132.363C338.977 132.363 333.261 138.078 333.261 145.128C333.261 152.178 338.977 157.893 346.028 157.893Z" stroke="#DBDBDB" stroke-miterlimit="10"/>
        <path d="M110.133 301.738C120.269 301.738 128.486 293.523 128.486 283.389C128.486 273.255 120.269 265.039 110.133 265.039C99.9974 265.039 91.7805 273.255 91.7805 283.389C91.7805 293.523 99.9974 301.738 110.133 301.738Z" fill="#F2F2F2"/>
        <path d="M114.438 294.263C124.574 294.263 132.791 286.047 132.791 275.913C132.791 265.779 124.574 257.564 114.438 257.564C104.302 257.564 96.0854 265.779 96.0854 275.913C96.0854 286.047 104.302 294.263 114.438 294.263Z" stroke="#DBDBDB" stroke-miterlimit="10"/>
    </g>
    <defs>
        <filter id="filter0_d" x="-64" y="0" width="503" height="501" filterUnits="userSpaceOnUse" color-interpolation-filters="sRGB">
            <feFlood flood-opacity="0" result="BackgroundImageFix"/>
            <feColorMatrix in="SourceAlpha" type="matrix" values="0 0 0 0 0 0 0 0 0 0 0 0 0 0 0 0 0 0 127 0" result="hardAlpha"/>
            <feOffset dy="40"/>
            <feGaussianBlur stdDeviation="40"/>
            <feColorMatrix type="matrix" values="0 0 0 0 0.900065 0 0 0 0 0.900065 0 0 0 0 0.900065 0 0 0 0.32 0"/>
            <feBlend mode="normal" in2="BackgroundImageFix" result="effect1_dropShadow"/>
            <feBlend mode="normal" in="SourceGraphic" in2="effect1_dropShadow" result="shape"/>
        </filter>
        <clipPath id="clip0">
            <rect width="343" height="341" fill="white" transform="translate(16 40)"/>
        </clipPath>
    </defs>
</svg>
