<svg viewBox="0 0 20 20" xmlns="http://www.w3.org/2000/svg">
    <path d="M18.7625 5.01526C17.6211 5.01526 16.568 4.63713 15.7223 3.99924C14.7523 3.26799 14.0555 2.19534 13.8094 0.959009C13.7484 0.65354 13.7156 0.338306 13.7125 0.0152588H10.452V8.92463L10.448 13.8047C10.448 15.1094 9.59844 16.2156 8.4207 16.6047C8.07891 16.7176 7.70976 16.7711 7.32539 16.75C6.83476 16.7231 6.375 16.575 5.97539 16.336C5.125 15.8274 4.54844 14.9047 4.53281 13.8492C4.5082 12.1996 5.8418 10.8547 7.49023 10.8547C7.81562 10.8547 8.12812 10.9078 8.4207 11.0043V8.56916V7.69377C8.11211 7.64807 7.79805 7.62424 7.48047 7.62424C5.67617 7.62424 3.98867 8.37424 2.78242 9.72541C1.8707 10.7465 1.32383 12.0492 1.23945 13.4153C1.1289 15.2098 1.78554 16.9156 3.05898 18.1742C3.24609 18.359 3.44258 18.5305 3.64805 18.6887C4.73984 19.5289 6.07461 19.9844 7.48047 19.9844C7.79805 19.9844 8.11211 19.961 8.4207 19.9153C9.73398 19.7207 10.9457 19.1196 11.902 18.1742C13.077 17.0129 13.7262 15.4711 13.7332 13.8301L13.7164 6.5426C14.277 6.97502 14.8898 7.33284 15.5477 7.61057C16.5707 8.04221 17.6555 8.26096 18.7719 8.26057V5.89299V5.01448C18.7727 5.01526 18.7633 5.01526 18.7625 5.01526Z" />
</svg>
