<svg viewBox="0 0 503 445" fill="none" xmlns="http://www.w3.org/2000/svg">
    <g filter="url(#filter0_d)">
        <g opacity="0.7">
            <path opacity="0.7" d="M296.73 168.283C296.76 159.266 294.597 150.376 290.428 142.377C288.448 138.621 286.642 136.285 285.237 134.853C284.707 134.292 284.015 133.91 283.258 133.761C282.5 133.612 281.714 133.703 281.011 134.021C280.449 134.219 279.941 134.546 279.528 134.975C277.648 136.918 275.95 139.487 274.467 142.222C270.081 150.408 267.804 159.555 267.842 168.838V174.412H264.261V109.647C264.261 96.0718 261.217 82.6784 255.256 70.7875C252.431 65.1585 249.854 61.6612 247.871 59.511C247.39 58.9644 246.798 58.5264 246.135 58.2264C245.471 57.9263 244.751 57.7711 244.022 57.7711C243.294 57.7711 242.574 57.9263 241.91 58.2264C241.246 58.5264 240.655 58.9644 240.174 59.511C237.49 62.4236 235.069 66.2725 232.952 70.3656C226.683 82.5008 223.498 96.2717 223.498 110.25V174.412H220.403V168.572C220.441 159.288 218.164 150.141 213.777 141.955C212.294 139.224 210.597 136.656 208.717 134.709C208.176 134.14 207.468 133.757 206.695 133.616C205.922 133.475 205.124 133.583 204.416 133.924L204.546 133.995C204.092 134.195 203.682 134.481 203.337 134.838C201.947 136.271 200.142 138.606 198.147 142.362C193.977 150.361 191.815 159.251 191.845 168.268V265.098H202.893L201.688 273.058V296.859H210.719V273.058L209.514 265.098H220.403V176.917H223.498V264.702H232.322L231.054 273.055V296.859H240.089V273.058L238.821 264.705H250.71L249.442 273.058V296.859H258.477V273.058L257.209 264.705H264.253V176.917H267.835V265.231H270.738V265.098H280.336L279.131 273.058V296.859H288.166V273.058L286.961 265.098H296.73V168.283Z" fill="url(#paint0_linear)"/>
        </g>
        <path d="M212.517 268.417H203.964L205.491 258.051H210.989L212.517 268.417Z" fill="#535461"/>
        <g opacity="0.1">
            <path opacity="0.1" d="M205.065 262.167H211.416L210.989 259.269H205.491L205.065 262.167Z" fill="black"/>
        </g>
        <path d="M285.834 268.417H277.281L278.809 258.051H284.307L285.834 268.417Z" fill="#535461"/>
        <g opacity="0.1">
            <path opacity="0.1" d="M278.382 262.167H284.733L284.307 259.269H278.809L278.382 262.167Z" fill="black"/>
        </g>
        <path d="M240.318 268.417H231.762L233.289 258.051H238.791L240.318 268.417Z" fill="#535461"/>
        <g opacity="0.1">
            <path opacity="0.1" d="M232.863 262.167H239.217L238.791 259.269H233.289L232.863 262.167Z" fill="black"/>
        </g>
        <path d="M257.728 268.417H249.176L250.703 258.051H256.201L257.728 268.417Z" fill="#535461"/>
        <g opacity="0.1">
            <path opacity="0.1" d="M250.277 262.167H256.631L256.201 259.269H250.703L250.277 262.167Z" fill="black"/>
        </g>
        <path d="M273.615 172.358H212.517V174.797H273.615V172.358Z" fill="#535461"/>
        <path d="M283.061 133.821C282.738 133.465 282.344 133.181 281.905 132.986C281.465 132.791 280.989 132.691 280.508 132.691C280.028 132.691 279.552 132.791 279.112 132.986C278.673 133.181 278.279 133.465 277.956 133.821C276.176 135.712 274.571 138.214 273.166 140.874C269.008 148.877 266.857 157.766 266.897 166.781V260.668H293.935V166.392C293.969 157.625 291.922 148.974 287.962 141.148C286.086 137.492 284.377 135.216 283.061 133.821Z" fill="#E0E0E0"/>
        <path d="M205.528 133.821C205.851 133.465 206.245 133.181 206.685 132.986C207.124 132.791 207.6 132.691 208.081 132.691C208.562 132.691 209.037 132.791 209.477 132.986C209.917 133.181 210.311 133.465 210.633 133.821C212.413 135.712 214.018 138.214 215.423 140.874C219.581 148.877 221.733 157.766 221.693 166.781V260.668H194.647V166.392C194.613 157.625 196.66 148.974 200.62 141.148C202.492 137.492 204.201 135.216 205.528 133.821Z" fill="#E0E0E0"/>
        <path d="M194.799 168.394L201.213 168.424V176.321H194.799V168.394Z" fill="#535461"/>
        <path d="M215.268 168.394L221.682 168.424V176.321H215.268V168.394Z" fill="#535461"/>
        <path d="M266.893 168.394L273.311 168.424V176.321H266.893V168.394Z" fill="#535461"/>
        <path d="M287.362 168.394L293.779 168.424V176.321H287.362V168.394Z" fill="#535461"/>
        <g opacity="0.1">
            <path opacity="0.1" d="M215.412 140.752C214.011 138.091 212.402 135.59 210.622 133.699C210.119 133.144 209.449 132.769 208.712 132.631C207.976 132.492 207.215 132.598 206.544 132.932C206.93 133.125 207.279 133.384 207.575 133.699C209.354 135.59 210.96 138.091 212.365 140.752C216.523 148.754 218.674 157.644 218.634 166.658V260.538H221.689V166.67C221.728 157.651 219.575 148.757 215.412 140.752Z" fill="black"/>
        </g>
        <g opacity="0.1">
            <path opacity="0.1" d="M275.598 141.011C276.999 138.351 278.608 135.849 280.388 133.958C280.721 133.6 281.123 133.313 281.571 133.114C280.91 132.825 280.175 132.751 279.469 132.902C278.764 133.054 278.124 133.423 277.641 133.958C275.861 135.849 274.256 138.351 272.851 141.011C268.693 149.014 266.542 157.903 266.582 166.918V260.797H269.332V166.932C269.289 157.913 271.439 149.018 275.598 141.011Z" fill="black"/>
        </g>
        <path d="M212.517 268.417H203.964V291.592H212.517V268.417Z" fill="url(#paint1_linear)"/>
        <path d="M240.315 268.417H231.762V291.592H240.315V268.417Z" fill="url(#paint2_linear)"/>
        <path d="M257.728 268.417H249.176V291.592H257.728V268.417Z" fill="url(#paint3_linear)"/>
        <path d="M285.834 268.417H277.281V291.592H285.834V268.417Z" fill="url(#paint4_linear)"/>
        <path d="M247.681 60.2104C247.235 59.6803 246.677 59.2541 246.048 58.9617C245.419 58.6693 244.733 58.5178 244.039 58.5178C243.345 58.5178 242.659 58.6693 242.03 58.9617C241.401 59.2541 240.843 59.6803 240.396 60.2104C237.857 63.0453 235.577 66.7943 233.56 70.7838C227.628 82.6044 224.61 96.02 224.61 109.624V260.283H263.201V109.017C263.201 95.798 260.32 82.7413 254.674 71.1909C252.001 65.7099 249.561 62.3051 247.681 60.2104Z" fill="#EEEEEE"/>
        <path d="M249.628 76.9457H237.649C235.397 76.9457 233.571 78.7684 233.571 81.0167V82.0862C233.571 84.3346 235.397 86.1572 237.649 86.1572H249.628C251.88 86.1572 253.706 84.3346 253.706 82.0862V81.0167C253.706 78.7684 251.88 76.9457 249.628 76.9457Z" fill="#3D62E8"/>
        <g opacity="0.7">
            <path opacity="0.7" d="M333.804 289.061C332.538 281.439 328.441 274.574 322.33 269.833C316.219 265.092 308.543 262.824 300.831 263.481C293.12 264.138 285.939 267.671 280.721 273.377C275.503 279.083 272.631 286.542 272.677 294.268C272.677 294.42 272.677 294.568 272.677 294.72C271.538 294.892 270.412 295.133 269.303 295.441C267.883 289.795 264.739 284.73 260.308 280.946C255.876 277.163 250.375 274.849 244.568 274.324C238.76 273.799 232.933 275.089 227.892 278.017C222.852 280.944 218.848 285.364 216.436 290.663C213.949 289.706 211.337 289.11 208.68 288.894C208.256 286.493 207.545 284.151 206.563 281.918C206.102 274.874 202.997 268.262 197.868 263.402C192.739 258.542 185.964 255.791 178.893 255.697C171.822 255.604 164.975 258.175 159.719 262.898C154.463 267.621 151.185 274.148 150.537 281.178C149.081 284.255 148.151 287.554 147.786 290.937C141.35 293.61 136.138 298.573 133.159 304.863C130.18 311.154 129.647 318.324 131.663 324.985H356.916C358.09 321.1 358.407 317.007 357.844 312.988C357.281 308.969 355.851 305.12 353.655 301.705C351.458 298.291 348.546 295.392 345.119 293.209C341.692 291.027 337.832 289.611 333.804 289.061Z" fill="url(#paint5_linear)"/>
        </g>
        <path d="M181.104 310.97C196.016 310.97 208.105 298.903 208.105 284.017C208.105 269.131 196.016 257.063 181.104 257.063C166.192 257.063 154.103 269.131 154.103 284.017C154.103 298.903 166.192 310.97 181.104 310.97Z" fill="url(#paint6_linear)"/>
        <path d="M180.971 323.638C197.3 323.638 210.537 310.424 210.537 294.124C210.537 277.823 197.3 264.609 180.971 264.609C164.642 264.609 151.404 277.823 151.404 294.124C151.404 310.424 164.642 323.638 180.971 323.638Z" fill="url(#paint7_linear)"/>
        <path d="M301.127 323.638C317.456 323.638 330.693 310.424 330.693 294.124C330.693 277.823 317.456 264.609 301.127 264.609C284.798 264.609 271.561 277.823 271.561 294.124C271.561 310.424 284.798 323.638 301.127 323.638Z" fill="url(#paint8_linear)"/>
        <path d="M299.641 323.638C314.553 323.638 326.641 311.571 326.641 296.685C326.641 281.799 314.553 269.731 299.641 269.731C284.728 269.731 272.64 281.799 272.64 296.685C272.64 311.571 284.728 323.638 299.641 323.638Z" fill="url(#paint9_linear)"/>
        <path d="M269.129 301.807C269.133 306.069 268.123 310.271 266.181 314.068C264.24 317.864 261.423 321.145 257.962 323.642H226.29C222.541 320.937 219.551 317.317 217.606 313.128C215.66 308.939 214.825 304.321 215.181 299.717C215.536 295.114 217.069 290.678 219.634 286.836C222.199 282.994 225.709 279.873 229.828 277.773C233.948 275.673 238.538 274.665 243.16 274.844C247.782 275.023 252.28 276.383 256.224 278.795C260.168 281.208 263.426 284.59 265.685 288.619C267.944 292.649 269.128 297.189 269.125 301.807H269.129Z" fill="url(#paint10_linear)"/>
        <path d="M302.614 321.214C302.614 322.021 302.578 322.819 302.506 323.608C302.509 323.619 302.509 323.631 302.506 323.642H248.719C248.645 322.842 248.608 322.032 248.608 321.218C248.604 314.768 250.918 308.531 255.131 303.641C259.344 298.751 265.175 295.532 271.564 294.571C272.899 294.371 274.248 294.27 275.598 294.268C276.287 294.268 276.973 294.294 277.652 294.342C282.491 294.711 287.142 296.375 291.115 299.159C295.088 301.942 298.236 305.742 300.23 310.159C300.341 310.404 300.449 310.652 300.549 310.9C301.912 314.168 302.614 317.674 302.614 321.214Z" fill="url(#paint11_linear)"/>
        <path d="M353.646 315.822C353.649 318.47 353.259 321.104 352.489 323.638H300.808C299.559 319.493 299.321 315.11 300.115 310.855C300.159 310.622 300.204 310.385 300.256 310.156C301.557 304.13 304.887 298.731 309.691 294.858C314.496 290.985 320.484 288.873 326.66 288.872C327.509 288.872 328.343 288.909 329.17 288.991C329.54 289.02 329.911 289.065 330.282 289.113C336.753 289.992 342.686 293.182 346.982 298.093C351.278 303.004 353.645 309.302 353.646 315.822Z" fill="url(#paint12_linear)"/>
        <path d="M187.781 323.642C187.87 323.36 187.948 323.079 188.026 322.794C189.255 318.205 189.248 313.373 188.006 308.788C186.764 304.202 184.331 300.025 180.953 296.68C177.575 293.334 173.371 290.939 168.768 289.735C164.165 288.532 159.324 288.564 154.737 289.827C153.663 290.121 152.609 290.485 151.582 290.915C145.399 293.483 140.39 298.252 137.528 304.296C134.667 310.341 134.155 317.231 136.093 323.631H187.781V323.642Z" fill="url(#paint13_linear)"/>
        <g opacity="0.7">
            <path opacity="0.7" d="M343.384 268.207C346.119 268.207 348.337 265.993 348.337 263.262C348.337 260.531 346.119 258.318 343.384 258.318C340.648 258.318 338.431 260.531 338.431 263.262C338.431 265.993 340.648 268.207 343.384 268.207Z" fill="url(#paint14_linear)"/>
        </g>
        <path d="M343.384 267.844C345.919 267.844 347.974 265.793 347.974 263.262C347.974 260.732 345.919 258.68 343.384 258.68C340.849 258.68 338.794 260.732 338.794 263.262C338.794 265.793 340.849 267.844 343.384 267.844Z" fill="url(#paint15_linear)"/>
        <g opacity="0.7">
            <path opacity="0.7" d="M366.066 316.362C369.049 316.362 371.467 313.948 371.467 310.97C371.467 307.992 369.049 305.578 366.066 305.578C363.082 305.578 360.664 307.992 360.664 310.97C360.664 313.948 363.082 316.362 366.066 316.362Z" fill="url(#paint16_linear)"/>
        </g>
        <path d="M366.066 316.092C368.899 316.092 371.197 313.799 371.197 310.97C371.197 308.141 368.899 305.848 366.066 305.848C363.232 305.848 360.935 308.141 360.935 310.97C360.935 313.799 363.232 316.092 366.066 316.092Z" fill="url(#paint17_linear)"/>
        <g opacity="0.7">
            <path opacity="0.7" d="M134.932 286.167C138.21 286.167 140.868 283.514 140.868 280.242C140.868 276.969 138.21 274.317 134.932 274.317C131.654 274.317 128.997 276.969 128.997 280.242C128.997 283.514 131.654 286.167 134.932 286.167Z" fill="url(#paint18_linear)"/>
        </g>
        <path d="M134.932 285.9C138.063 285.9 140.601 283.367 140.601 280.242C140.601 277.117 138.063 274.583 134.932 274.583C131.802 274.583 129.264 277.117 129.264 280.242C129.264 283.367 131.802 285.9 134.932 285.9Z" fill="url(#paint19_linear)"/>
        <g opacity="0.4">
            <path opacity="0.4" d="M358.543 46.4654C357.228 44.7299 355.579 43.2731 353.694 42.1798C351.531 40.9392 349.112 40.2111 346.623 40.0518C344.134 39.8926 341.641 40.3063 339.337 41.2611C337.034 42.216 334.98 43.6864 333.336 45.5589C331.692 47.4314 330.501 49.6559 329.855 52.0608C329.208 54.4658 329.124 56.9868 329.608 59.4294C330.093 61.8719 331.133 64.1707 332.648 66.1484C334.164 68.1261 336.114 69.7298 338.349 70.8357C340.584 71.9417 343.044 72.5203 345.538 72.5269C345.883 72.5269 346.227 72.5269 346.569 72.4936C349.503 72.3088 352.333 71.334 354.757 69.6726C357.181 68.0113 359.11 65.7255 360.337 63.058C361.564 60.3906 362.045 57.4411 361.728 54.5229C361.411 51.6046 360.308 48.8266 358.536 46.4839L358.543 46.4654Z" fill="url(#paint20_linear)"/>
        </g>
        <path opacity="0.2" d="M360.935 56.2542C360.935 60.1603 359.445 63.9198 356.767 66.768C354.089 69.6163 350.425 71.3394 346.52 71.5869C346.198 71.6091 345.872 71.6202 345.545 71.6202C343.185 71.6188 340.858 71.0757 338.742 70.0329C336.626 68.99 334.778 67.4754 333.342 65.6061C331.906 63.7368 330.92 61.5629 330.46 59.2524C330 56.942 330.079 54.5569 330.69 52.2815C331.3 50.0061 332.427 47.9015 333.983 46.1302C335.539 44.3589 337.481 42.9686 339.661 42.0665C341.841 41.1645 344.2 40.775 346.555 40.9281C348.91 41.0812 351.198 41.7729 353.242 42.9496C355.025 43.9832 356.584 45.3608 357.828 47.002C359.848 49.6644 360.94 52.9141 360.935 56.2542Z" fill="#3D62E8"/>
        <path opacity="0.05" d="M341.756 46.5098C340.961 46.8522 340.194 47.2556 339.461 47.7163C338.972 47.9872 338.552 48.3671 338.234 48.8266C338.079 49.057 337.994 49.3273 337.988 49.6049C337.983 49.8826 338.058 50.1559 338.205 50.392C338.575 50.9028 339.317 50.9842 339.936 51.0175C340.505 51.1381 341.096 51.1057 341.648 50.9237C342.201 50.7416 342.695 50.4164 343.08 49.9812L344.403 48.7822C344.863 48.3677 345.367 47.794 345.167 47.2093C345.015 46.7615 344.511 46.5431 344.055 46.4691C342.917 46.2456 341.737 46.4528 340.744 47.0502" fill="#F55F44"/>
        <path opacity="0.05" d="M336.229 63.1267C336.675 63.1267 337.037 62.7655 337.037 62.3199C337.037 61.8743 336.675 61.5131 336.229 61.5131C335.782 61.5131 335.42 61.8743 335.42 62.3199C335.42 62.7655 335.782 63.1267 336.229 63.1267Z" fill="#F55F44"/>
        <path opacity="0.05" d="M352.701 60.1623C354.341 60.1623 355.67 58.8351 355.67 57.1979C355.67 55.5607 354.341 54.2335 352.701 54.2335C351.061 54.2335 349.731 55.5607 349.731 57.1979C349.731 58.8351 351.061 60.1623 352.701 60.1623Z" fill="#F55F44"/>
        <path opacity="0.05" d="M357.832 46.9984C357.82 47.7729 357.586 48.5278 357.157 49.1734C356.728 49.8189 356.122 50.3279 355.412 50.6398C354.701 50.9517 353.916 51.0534 353.149 50.9329C352.383 50.8124 351.667 50.4747 351.087 49.9599C350.507 49.4451 350.088 48.7749 349.878 48.029C349.669 47.2831 349.678 46.4929 349.906 45.7522C350.133 45.0115 350.568 44.3516 351.161 43.8508C351.753 43.35 352.476 43.0295 353.246 42.9274C355.03 43.9664 356.589 45.3504 357.832 46.9984Z" fill="#F55F44"/>
        <path opacity="0.05" d="M358.128 65.103C356.804 66.9835 355.074 68.5426 353.064 69.665C351.055 70.7874 348.818 71.4442 346.52 71.5869C346.502 71.3759 346.491 71.1613 346.491 70.9466C346.491 69.5982 346.867 68.2763 347.576 67.1285C348.285 65.9807 349.299 65.0521 350.506 64.4461C351.713 63.8401 353.065 63.5807 354.41 63.6967C355.756 63.8126 357.043 64.2995 358.128 65.103Z" fill="#F55F44"/>
        <path opacity="0.25" d="M347.974 169.464C349.018 169.464 349.864 168.619 349.864 167.576C349.864 166.534 349.018 165.689 347.974 165.689C346.93 165.689 346.083 166.534 346.083 167.576C346.083 168.619 346.93 169.464 347.974 169.464Z" fill="#535461"/>
        <path opacity="0.25" d="M95.8712 219.055C96.9155 219.055 97.762 218.21 97.762 217.168C97.762 216.125 96.9155 215.28 95.8712 215.28C94.827 215.28 93.9805 216.125 93.9805 217.168C93.9805 218.21 94.827 219.055 95.8712 219.055Z" fill="#535461"/>
        <path opacity="0.25" d="M421.009 229.788C422.053 229.788 422.9 228.943 422.9 227.9C422.9 226.858 422.053 226.013 421.009 226.013C419.965 226.013 419.118 226.858 419.118 227.9C419.118 228.943 419.965 229.788 421.009 229.788Z" fill="#535461"/>
        <path opacity="0.25" d="M187.043 140.353C188.088 140.353 188.934 139.508 188.934 138.465C188.934 137.423 188.088 136.578 187.043 136.578C185.999 136.578 185.153 137.423 185.153 138.465C185.153 139.508 185.999 140.353 187.043 140.353Z" fill="#535461"/>
        <path opacity="0.25" d="M180.834 96.9563C181.878 96.9563 182.724 96.1113 182.724 95.0689C182.724 94.0265 181.878 93.1814 180.834 93.1814C179.789 93.1814 178.943 94.0265 178.943 95.0689C178.943 96.1113 179.789 96.9563 180.834 96.9563Z" fill="#535461"/>
        <path opacity="0.25" d="M127.369 182.939C128.414 182.939 129.26 182.094 129.26 181.051C129.26 180.009 128.414 179.164 127.369 179.164C126.325 179.164 125.479 180.009 125.479 181.051C125.479 182.094 126.325 182.939 127.369 182.939Z" fill="#535461"/>
        <path opacity="0.25" d="M394.824 183.268H393.141V181.591H392.455V183.268H390.772V183.956H392.455V185.633H393.141V183.956H394.824V183.268Z" fill="#535461"/>
        <path opacity="0.25" d="M423 125.164H421.317V123.488H420.631V125.164H418.948V125.853H420.631V127.529H421.317V125.853H423V125.164Z" fill="#535461"/>
        <path opacity="0.25" d="M303.018 92.704H301.335V91.0238H300.649V92.704H298.966V93.3887H300.649V95.0689H301.335V93.3887H303.018V92.704Z" fill="#535461"/>
        <path opacity="0.25" d="M376.461 173.834H374.778V172.158H374.092V173.834H372.413V174.523H374.092V176.199H374.778V174.523H376.461V173.834Z" fill="#535461"/>
        <path opacity="0.25" d="M314.896 229.629H313.217V227.952H312.531V229.629H310.848V230.317H312.531V231.994H313.217V230.317H314.896V229.629Z" fill="#535461"/>
        <path opacity="0.25" d="M142.629 114.535H140.946V112.859H140.26V114.535H138.577V115.22H140.26V116.9H140.946V115.22H142.629V114.535Z" fill="#535461"/>
        <path opacity="0.25" d="M84.0522 136.371H82.369V134.694H81.6832V136.371H80V137.055H81.6832V138.735H82.369V137.055H84.0522V136.371Z" fill="#535461"/>
        <path opacity="0.25" d="M165.848 205.103H164.165V203.423H163.479V205.103H161.8V205.788H163.479V207.468H164.165V205.788H165.848V205.103Z" fill="#535461"/>
        <path d="M366.066 316.092C368.899 316.092 371.197 313.799 371.197 310.97C371.197 308.141 368.899 305.848 366.066 305.848C363.232 305.848 360.935 308.141 360.935 310.97C360.935 313.799 363.232 316.092 366.066 316.092Z" fill="url(#paint21_linear)"/>
        <g opacity="0.4">
            <path opacity="0.4" d="M179.714 168.909C179.087 168.081 178.302 167.387 177.404 166.866C176.374 166.267 175.22 165.914 174.031 165.833C172.842 165.752 171.65 165.945 170.548 166.398C169.446 166.852 168.463 167.552 167.677 168.446C166.89 169.34 166.32 170.402 166.011 171.551C165.703 172.7 165.663 173.905 165.896 175.072C166.13 176.239 166.629 177.336 167.356 178.279C168.083 179.222 169.018 179.985 170.088 180.508C171.158 181.032 172.334 181.303 173.526 181.299C173.689 181.299 173.856 181.299 174.016 181.299C175.413 181.21 176.759 180.745 177.913 179.953C179.067 179.162 179.984 178.074 180.569 176.804C181.153 175.534 181.382 174.13 181.231 172.74C181.081 171.351 180.556 170.028 179.714 168.912V168.909Z" fill="url(#paint22_linear)"/>
        </g>
        <path opacity="0.2" d="M180.852 173.572C180.852 175.432 180.142 177.223 178.867 178.579C177.591 179.935 175.846 180.756 173.986 180.873C173.834 180.873 173.678 180.873 173.523 180.873C172.399 180.872 171.29 180.613 170.283 180.116C169.276 179.62 168.396 178.898 167.713 178.008C167.029 177.118 166.56 176.082 166.341 174.982C166.122 173.882 166.159 172.746 166.45 171.663C166.741 170.579 167.278 169.577 168.019 168.734C168.759 167.89 169.684 167.228 170.722 166.798C171.76 166.369 172.883 166.183 174.005 166.256C175.126 166.328 176.215 166.657 177.189 167.217C178.038 167.709 178.78 168.365 179.373 169.145C180.339 170.419 180.859 171.974 180.852 173.572Z" fill="#3D62E8"/>
        <path opacity="0.1" d="M171.717 168.931C171.332 169.093 170.96 169.284 170.605 169.504C170.372 169.631 170.172 169.81 170.019 170.026C169.948 170.137 169.911 170.265 169.911 170.396C169.911 170.527 169.948 170.656 170.019 170.766C170.127 170.872 170.256 170.953 170.398 171.004C170.54 171.055 170.692 171.075 170.842 171.062C171.111 171.117 171.389 171.101 171.65 171.014C171.91 170.928 172.143 170.775 172.325 170.57L172.955 170C173.174 169.8 173.415 169.53 173.326 169.26C173.276 169.158 173.201 169.07 173.108 169.005C173.014 168.941 172.905 168.901 172.792 168.89C172.251 168.784 171.689 168.883 171.217 169.168" fill="#F55F44"/>
        <path opacity="0.1" d="M169.085 176.843C169.298 176.843 169.47 176.671 169.47 176.458C169.47 176.246 169.298 176.073 169.085 176.073C168.872 176.073 168.699 176.246 168.699 176.458C168.699 176.671 168.872 176.843 169.085 176.843Z" fill="#F55F44"/>
        <path opacity="0.1" d="M176.93 175.433C177.712 175.433 178.346 174.8 178.346 174.019C178.346 173.239 177.712 172.606 176.93 172.606C176.147 172.606 175.513 173.239 175.513 174.019C175.513 174.8 176.147 175.433 176.93 175.433Z" fill="#F55F44"/>
        <path opacity="0.1" d="M179.373 169.179C179.368 169.547 179.257 169.907 179.054 170.215C178.85 170.522 178.563 170.765 178.225 170.914C177.887 171.063 177.513 171.113 177.149 171.056C176.784 170.999 176.443 170.839 176.166 170.595C175.89 170.35 175.69 170.031 175.589 169.677C175.489 169.322 175.493 168.946 175.601 168.593C175.709 168.24 175.916 167.926 176.197 167.687C176.479 167.449 176.823 167.296 177.189 167.247C178.038 167.74 178.78 168.397 179.373 169.179Z" fill="#F55F44"/>
        <path opacity="0.1" d="M179.517 177.787C178.887 178.683 178.063 179.426 177.106 179.961C176.149 180.496 175.084 180.809 173.99 180.877C173.99 180.777 173.99 180.674 173.99 180.57C173.988 179.925 174.166 179.292 174.505 178.742C174.843 178.192 175.329 177.748 175.907 177.459C176.485 177.17 177.132 177.047 177.776 177.105C178.419 177.163 179.034 177.399 179.551 177.787H179.517Z" fill="#F55F44"/>
        <g opacity="0.1">
            <path opacity="0.1" d="M262.993 114.776H224.807V116.256H262.993V114.776Z" fill="black"/>
        </g>
    </g>
    <defs>
        <filter id="filter0_d" x="0" y="0" width="503" height="445" filterUnits="userSpaceOnUse" color-interpolation-filters="sRGB">
            <feFlood flood-opacity="0" result="BackgroundImageFix"/>
            <feColorMatrix in="SourceAlpha" type="matrix" values="0 0 0 0 0 0 0 0 0 0 0 0 0 0 0 0 0 0 127 0" result="hardAlpha"/>
            <feOffset dy="40"/>
            <feGaussianBlur stdDeviation="40"/>
            <feColorMatrix type="matrix" values="0 0 0 0 0.900065 0 0 0 0 0.900065 0 0 0 0 0.900065 0 0 0 0.32 0"/>
            <feBlend mode="normal" in2="BackgroundImageFix" result="effect1_dropShadow"/>
            <feBlend mode="normal" in="SourceGraphic" in2="effect1_dropShadow" result="shape"/>
        </filter>
        <linearGradient id="paint0_linear" x1="244.289" y1="296.859" x2="244.289" y2="57.7827" gradientUnits="userSpaceOnUse">
            <stop stop-color="#808080" stop-opacity="0.25"/>
            <stop offset="0.54" stop-color="#808080" stop-opacity="0.12"/>
            <stop offset="1" stop-color="#808080" stop-opacity="0.1"/>
        </linearGradient>
        <linearGradient id="paint1_linear" x1="208.238" y1="268.417" x2="208.238" y2="291.596" gradientUnits="userSpaceOnUse">
            <stop stop-color="#E0E0E0"/>
            <stop offset="0.31" stop-color="#FCCC63"/>
            <stop offset="0.77" stop-color="#F55F44"/>
        </linearGradient>
        <linearGradient id="paint2_linear" x1="3831.61" y1="14571.9" x2="3831.61" y2="16023.4" gradientUnits="userSpaceOnUse">
            <stop stop-color="#E0E0E0"/>
            <stop offset="0.31" stop-color="#FCCC63"/>
            <stop offset="0.77" stop-color="#F55F44"/>
        </linearGradient>
        <linearGradient id="paint3_linear" x1="4250.75" y1="14571.9" x2="4250.75" y2="16023.4" gradientUnits="userSpaceOnUse">
            <stop stop-color="#E0E0E0"/>
            <stop offset="0.31" stop-color="#FCCC63"/>
            <stop offset="0.77" stop-color="#F55F44"/>
        </linearGradient>
        <linearGradient id="paint4_linear" x1="4927.27" y1="14571.9" x2="4927.27" y2="16023.4" gradientUnits="userSpaceOnUse">
            <stop stop-color="#E0E0E0"/>
            <stop offset="0.31" stop-color="#FCCC63"/>
            <stop offset="0.77" stop-color="#F55F44"/>
        </linearGradient>
        <linearGradient id="paint5_linear" x1="132295" y1="58116.5" x2="132295" y2="45141.2" gradientUnits="userSpaceOnUse">
            <stop stop-color="#808080" stop-opacity="0.25"/>
            <stop offset="0.54" stop-color="#808080" stop-opacity="0.12"/>
            <stop offset="1" stop-color="#808080" stop-opacity="0.1"/>
        </linearGradient>
        <linearGradient id="paint6_linear" x1="181.104" y1="257.063" x2="181.104" y2="310.97" gradientUnits="userSpaceOnUse">
            <stop stop-color="#F2F2F2"/>
            <stop offset="0.31" stop-color="#E6E6E6"/>
            <stop offset="0.77" stop-color="#CCCCCC"/>
        </linearGradient>
        <linearGradient id="paint7_linear" x1="16256.2" y1="36089.8" x2="16256.2" y2="45504.9" gradientUnits="userSpaceOnUse">
            <stop stop-color="#F2F2F2"/>
            <stop offset="0.31" stop-color="#E6E6E6"/>
            <stop offset="0.77" stop-color="#CCCCCC"/>
        </linearGradient>
        <linearGradient id="paint8_linear" x1="35541.3" y1="36089.8" x2="35541.3" y2="45504.9" gradientUnits="userSpaceOnUse">
            <stop stop-color="#F2F2F2"/>
            <stop offset="0.31" stop-color="#E6E6E6"/>
            <stop offset="0.77" stop-color="#CCCCCC"/>
        </linearGradient>
        <linearGradient id="paint9_linear" x1="32265.5" y1="33732.4" x2="32265.5" y2="41584.4" gradientUnits="userSpaceOnUse">
            <stop stop-color="#F2F2F2"/>
            <stop offset="0.31" stop-color="#E6E6E6"/>
            <stop offset="0.77" stop-color="#CCCCCC"/>
        </linearGradient>
        <linearGradient id="paint10_linear" x1="31265.9" y1="34425.2" x2="31265.9" y2="40861" gradientUnits="userSpaceOnUse">
            <stop stop-color="#F2F2F2"/>
            <stop offset="0.31" stop-color="#E6E6E6"/>
            <stop offset="0.77" stop-color="#CCCCCC"/>
        </linearGradient>
        <linearGradient id="paint11_linear" x1="36163.9" y1="22382.8" x2="36163.9" y2="24714.7" gradientUnits="userSpaceOnUse">
            <stop stop-color="#F2F2F2"/>
            <stop offset="0.31" stop-color="#E6E6E6"/>
            <stop offset="0.77" stop-color="#CCCCCC"/>
        </linearGradient>
        <linearGradient id="paint12_linear" x1="43637.2" y1="25925.6" x2="43637.2" y2="29192.2" gradientUnits="userSpaceOnUse">
            <stop stop-color="#F2F2F2"/>
            <stop offset="0.31" stop-color="#E6E6E6"/>
            <stop offset="0.77" stop-color="#CCCCCC"/>
        </linearGradient>
        <linearGradient id="paint13_linear" x1="19491.2" y1="25940.5" x2="19491.2" y2="29209.1" gradientUnits="userSpaceOnUse">
            <stop stop-color="#F2F2F2"/>
            <stop offset="0.31" stop-color="#E6E6E6"/>
            <stop offset="0.77" stop-color="#CCCCCC"/>
        </linearGradient>
        <linearGradient id="paint14_linear" x1="7376.02" y1="6356.03" x2="7376.02" y2="6091.8" gradientUnits="userSpaceOnUse">
            <stop stop-color="#808080" stop-opacity="0.25"/>
            <stop offset="0.54" stop-color="#808080" stop-opacity="0.12"/>
            <stop offset="1" stop-color="#808080" stop-opacity="0.1"/>
        </linearGradient>
        <linearGradient id="paint15_linear" x1="6860.21" y1="5673.23" x2="6860.21" y2="5900.11" gradientUnits="userSpaceOnUse">
            <stop stop-color="#F2F2F2"/>
            <stop offset="0.31" stop-color="#E6E6E6"/>
            <stop offset="0.77" stop-color="#CCCCCC"/>
        </linearGradient>
        <linearGradient id="paint16_linear" x1="8696.61" y1="8358.76" x2="8696.61" y2="8044.61" gradientUnits="userSpaceOnUse">
            <stop stop-color="#808080" stop-opacity="0.25"/>
            <stop offset="0.54" stop-color="#808080" stop-opacity="0.12"/>
            <stop offset="1" stop-color="#808080" stop-opacity="0.1"/>
        </linearGradient>
        <linearGradient id="paint17_linear" x1="366.066" y1="305.848" x2="366.066" y2="316.092" gradientUnits="userSpaceOnUse">
            <stop stop-color="#F2F2F2"/>
            <stop offset="0.31" stop-color="#E0E0E0"/>
            <stop offset="0.77" stop-color="#B3B3B3"/>
        </linearGradient>
        <linearGradient id="paint18_linear" x1="1887.93" y1="8156.58" x2="1887.93" y2="7777.14" gradientUnits="userSpaceOnUse">
            <stop stop-color="#808080" stop-opacity="0.25"/>
            <stop offset="0.54" stop-color="#808080" stop-opacity="0.12"/>
            <stop offset="1" stop-color="#808080" stop-opacity="0.1"/>
        </linearGradient>
        <linearGradient id="paint19_linear" x1="1809.1" y1="7448.12" x2="1809.1" y2="7794.32" gradientUnits="userSpaceOnUse">
            <stop stop-color="#F2F2F2"/>
            <stop offset="0.31" stop-color="#E6E6E6"/>
            <stop offset="0.77" stop-color="#CCCCCC"/>
        </linearGradient>
        <linearGradient id="paint20_linear" x1="28094.5" y1="5006.97" x2="28094.5" y2="2151.44" gradientUnits="userSpaceOnUse">
            <stop stop-color="#808080" stop-opacity="0.25"/>
            <stop offset="0.54" stop-color="#808080" stop-opacity="0.12"/>
            <stop offset="1" stop-color="#808080" stop-opacity="0.1"/>
        </linearGradient>
        <linearGradient id="paint21_linear" x1="8279.26" y1="7664.54" x2="8279.26" y2="7948.09" gradientUnits="userSpaceOnUse">
            <stop stop-color="#F2F2F2"/>
            <stop offset="0.31" stop-color="#E6E6E6"/>
            <stop offset="0.77" stop-color="#CCCCCC"/>
        </linearGradient>
        <linearGradient id="paint22_linear" x1="6217.23" y1="7084.11" x2="6217.23" y2="6436.24" gradientUnits="userSpaceOnUse">
            <stop stop-color="#808080" stop-opacity="0.25"/>
            <stop offset="0.54" stop-color="#808080" stop-opacity="0.12"/>
            <stop offset="1" stop-color="#808080" stop-opacity="0.1"/>
        </linearGradient>
    </defs>
</svg>
